<svg height="512" viewBox="0 0 48 58" width="512" xmlns="http://www.w3.org/2000/svg"><g id="Page-1" fill="none" fill-rule="evenodd"><g id="043---Calculating-Calories" fill-rule="nonzero" transform="translate(-1)"><path id="Shape" d="m49 4v47c0 2.209139-1.790861 4-4 4h-22.35c1.7499714-1.9225103 3.0121019-4.2375594 3.68-6.75 1.78-6.39-.26-12.48-4.55-13.58-1.8179852-.4023333-3.721331-.0173053-5.24 1.06-1.5604623.9866246-3.5495377.9866246-5.11 0-.4509065-.2935481-.9299392-.5414392-1.43-.74-.21-.08-.41-.16-.62-.22v-.01c2.52.62 4.84-.04 5.2-1.47s-1.39-3.11-3.91-3.73c-.2200501-.0544385-.4440952-.091222-.67-.11v-25.45c0-2.209139 1.790861-4 4-4h31c2.209139 0 4 1.790861 4 4z" fill="#2980ba"/><rect id="Rectangle-path" fill="#f3d55b" height="7" rx="2" width="7" x="26" y="43"/><rect id="Rectangle-path" fill="#f3d55b" height="7" rx="2" width="7" x="26" y="32"/><rect id="Rectangle-path" fill="#9fc9d3" height="11" rx="1" width="29" x="15" y="5"/><path id="Shape" d="m25.14 5-6 11h-2.28l6-11z" fill="#fff"/><path id="Shape" d="m31.14 5-6 11h-2.28l6-11z" fill="#fff"/><g fill="#f3d55b"><rect id="Rectangle-path" height="7" rx="2" width="7" x="37" y="43"/><rect id="Rectangle-path" height="7" rx="2" width="7" x="37" y="32"/><rect id="Rectangle-path" height="7" rx="2" width="7" x="37" y="21"/></g><path id="Shape" d="m24 21h-5.5c-1.9329966 0-3.5 1.5670034-3.5 3.5.0093024 1.9291303 1.5708697 3.4906976 3.5 3.5h11c1.9291303-.0093024 3.4906976-1.5708697 3.5-3.5 0-1.9329966-1.5670034-3.5-3.5-3.5z" fill="#f29c1f"/><path id="Shape" d="m26.33 48.25c-.6678981 2.5124406-1.9300286 4.8274897-3.68 6.75-2.17 2.31-4.85 3.46-7.33 2.83-.4648755-.1215602-.9119608-.3030836-1.33-.54-.422352.2352765-.872527.4166903-1.34.54-4.29 1.1-9.22-3.18-11.01-9.58-1.79-6.4.26-12.48 4.56-13.58 1.04827129-.2667517 2.15056017-.2320886 3.18.1.21.06.41.14.62.22.5000608.1985608.9790935.4464519 1.43.74 1.5604623.9866246 3.5495377.9866246 5.11 0 1.518669-1.0773053 3.4220148-1.4623333 5.24-1.06 4.29 1.1 6.33 7.19 4.55 13.58z" fill="#e64c3c"/><path id="Shape" d="m5.5 48.177c-.44891512-.0001881-.84269078-.2995066-.963-.732-1.023-3.672-.42-6.655.486-8.222.38766547-.7894092 1.08197101-1.385406 1.921-1.649.53516392-.1380712 1.08092881.1838361 1.219.719s-.18383608 1.0809288-.719 1.219c-.30583649.1483534-.54923177.4002516-.687.711-.9326407 2.1128191-1.03651751 4.4991301-.291 6.685.08426526.3017023.02228759.6254579-.1674483.8747072s-.48530398.395189-.7985517.3942928z" fill="#fff"/><path id="Shape" d="m14.58 33.29c-.36 1.43-2.68 2.09-5.2 1.47-1.74-.43-4.26-2.42-5.64-3.6-.19659547-.164179-.28103703-.4269142-.21690552-.6748894.0641315-.2479751.2653634-.4368292.51690552-.4851106 1.95274631-.4514352 3.95761677-.6364484 5.96-.55.2259048.018778.4499499.0555615.67.11 2.52.62 4.27 2.29 3.91 3.73z" fill="#4fba6f"/><path id="Shape" d="m13.987 39.989c-.5522847 0-1-.4477153-1-1v-2c0-7.133 4.967-8.87 5.179-8.94.5164739-.1552791 1.0630415.1269648 1.2354473.6379766s-.0914653 1.0666824-.5964473 1.2560234c-.168.06-3.818 1.415-3.818 7.046v2c0 .5522847-.4477153 1-1 1z" fill="#805333"/><path id="Shape" d="m43 17h-27c-1.1045695 0-2-.8954305-2-2v-9c0-1.1045695.8954305-2 2-2h27c1.1045695 0 2 .8954305 2 2v9c0 1.1045695-.8954305 2-2 2zm-27-11v9h27v-9z" fill="#3b97d3"/></g></g></svg>